# xmcd
#
# Track frame offsets:
#  182
#  12290
#  23327
#  39115
#  52465
#  65452
#  79627
#  92312
#  104292
#  118102
#  130012
#  146332
#  157397
#  169675
#
# Disc length: 2697 seconds
#
# Revision: 0
# Processed by: cddbd v1.5.1PL2 Copyright (c) Steve Scherf et al.
# Submitted via: Collectorz.com_Music_Collector 6.10
#
DISCID=ab0a870e
DTITLE=Various Artist - 28 Blues Ballads Disc 2
DYEAR=1999
DGENRE=Blues
TTITLE0=John Lee Hooker - I'm in the Mood
TTITLE1=Howlin' Wolf - Red Rooster
TTITLE2=Lightnin' Hopkins - Coffee for Mama
TTITLE3=Muddy Waters - She Moves Me
TTITLE4=Little Walter - Everybody Needs Somebody
TTITLE5=Sonny Boy Williams - Help Me
TTITLE6=Howlin' Wolf - Back Door Man
TTITLE7=Muddy Waters - Long Distance Call
TTITLE8=Memphis Slim - My Baby
TTITLE9=Johnny Guitar Watson - One Room Country Shack
TTITLE10=Animals, The - SONNY BOY WILLIAMSON - Pontiac Blues
TTITLE11=Big Joe Willams - Sinking Blues
TTITLE12=Little Walter - Last Night
TTITLE13=MIKE BLOOMFIELD - Wee Wee Hours
EXTD=
EXTT0=
EXTT1=
EXTT2=
EXTT3=
EXTT4=
EXTT5=
EXTT6=
EXTT7=
EXTT8=
EXTT9=
EXTT10=
EXTT11=
EXTT12=
EXTT13=
PLAYORDER=
